<?xml version="1.0" encoding="utf-8"?>
<svg viewBox="66.021 565.062 2109.434 584.479" style="fill-rule:evenodd;clip-rule:evenodd;stroke-linejoin:round;stroke-miterlimit:2;" xmlns="http://www.w3.org/2000/svg">
  <g id="Layer1">
    <path d="M776,797.207L776,1028.55L748,1028.55L748,828.336L740,828.336L740,820.114C752.092,822.157 768.085,800.11 768,797.207C768,797.207 774.491,797.282 776,797.207Z" style="fill:rgb(7,52,32);"/>
    <path d="M776.3,797.207C776.3,797.125 776.266,797.046 776.207,796.99C776.147,796.933 776.067,796.903 775.985,796.908C775.534,796.93 774.636,796.938 773.6,796.94C771.176,796.944 768.003,796.907 768.003,796.907C767.922,796.906 767.843,796.939 767.786,796.997C767.729,797.055 767.698,797.134 767.7,797.216C767.705,797.394 767.633,797.652 767.506,797.982C767.211,798.746 766.615,799.837 765.779,801.13C763.315,804.945 758.78,810.494 753.648,814.585C749.239,818.1 744.393,820.552 740.05,819.818C739.963,819.803 739.874,819.828 739.806,819.885C739.739,819.942 739.7,820.025 739.7,820.114L739.7,828.336C739.7,828.502 739.834,828.636 740,828.636L747.7,828.636C747.7,828.636 747.7,1028.55 747.7,1028.55C747.7,1028.71 747.834,1028.85 748,1028.85L776,1028.85C776.166,1028.85 776.3,1028.71 776.3,1028.55L776.3,797.207ZM775.7,797.518L775.7,1028.25C775.7,1028.25 748.3,1028.25 748.3,1028.25C748.3,1028.25 748.3,828.336 748.3,828.336C748.3,828.171 748.166,828.036 748,828.036L740.3,828.036C740.3,828.036 740.3,820.462 740.3,820.462C744.699,821.038 749.583,818.592 754.022,815.054C759.209,810.92 763.793,805.312 766.283,801.456C767.147,800.118 767.76,798.988 768.065,798.199C768.168,797.934 768.236,797.702 768.271,797.51C769.093,797.519 771.602,797.543 773.601,797.54C774.446,797.539 775.2,797.533 775.7,797.518L775.7,797.518Z" style="fill:rgb(7,52,32);"/>
    <g transform="matrix(1,0,0,1,811.058,1.2593)">
      <path d="M912.187,890.986C924.971,892.859 934.808,888.317 941.088,876.033L946.324,875.982L946.354,896.386C963.799,883.454 981.716,878.606 1000.1,881.748C1015.59,886.778 1025.18,889.135 1030.31,901.724L1030.94,1026.74L1001.94,1026.74L1002.18,900.891C998.47,894.746 993.198,892.689 987.214,892.49C970.776,892.96 957.326,897.985 947.335,912.268L946.942,1026.74L920.942,1027.29L920.862,901.821L912.151,901.766L912.187,890.986Z" style="fill:rgb(7,52,32);"/>
      <path d="M912.26,890.491C912.117,890.47 911.971,890.513 911.861,890.607C911.751,890.702 911.688,890.84 911.687,890.984L911.651,901.764C911.65,902.039 911.872,902.264 912.148,902.266L920.363,902.318C920.363,902.318 920.442,1027.29 920.442,1027.29C920.442,1027.42 920.496,1027.55 920.592,1027.64C920.688,1027.74 920.818,1027.79 920.952,1027.79L946.952,1027.24C947.224,1027.24 947.441,1027.01 947.442,1026.74L947.835,912.427C952.712,905.496 958.417,900.782 964.898,897.732C971.542,894.605 978.999,893.227 987.207,892.99C990.244,893.093 993.088,893.68 995.627,895.068C997.924,896.325 999.967,898.238 1001.68,901.029C1001.68,901.031 1001.44,1026.74 1001.44,1026.74C1001.44,1026.87 1001.49,1027 1001.59,1027.09C1001.68,1027.19 1001.81,1027.24 1001.94,1027.24L1030.94,1027.24C1031.08,1027.24 1031.2,1027.19 1031.3,1027.09C1031.39,1027 1031.44,1026.87 1031.44,1026.74L1030.81,901.722C1030.81,901.658 1030.8,901.595 1030.77,901.535C1028.51,895.996 1025.41,892.401 1021.34,889.69C1016.05,886.166 1009.11,884.149 1000.25,881.272C1000.23,881.265 1000.21,881.259 1000.18,881.255C990.523,879.604 980.99,880.142 971.586,882.883C963.24,885.315 954.995,889.483 946.853,895.4C946.853,895.4 946.824,875.982 946.824,875.982C946.824,875.848 946.77,875.721 946.676,875.627C946.581,875.533 946.453,875.481 946.319,875.482L941.083,875.533C940.897,875.535 940.728,875.64 940.643,875.806C937.61,881.739 933.739,885.84 929.088,888.251C924.28,890.744 918.643,891.427 912.26,890.491ZM912.686,891.561C919.065,892.406 924.71,891.647 929.548,889.139C934.296,886.678 938.273,882.531 941.394,876.53C941.394,876.53 945.825,876.487 945.825,876.487C945.825,876.487 945.854,896.387 945.854,896.387C945.855,896.575 945.961,896.748 946.13,896.833C946.299,896.917 946.501,896.9 946.652,896.788C954.95,890.636 963.354,886.323 971.866,883.843C981.11,881.148 990.48,880.617 999.977,882.234C1008.72,885.071 1015.57,887.045 1020.78,890.522C1024.67,893.113 1027.64,896.549 1029.81,901.822C1029.81,901.824 1030.44,1026.24 1030.44,1026.24C1030.44,1026.24 1002.44,1026.24 1002.44,1026.24C1002.44,1026.24 1002.68,900.892 1002.68,900.892C1002.68,900.801 1002.65,900.711 1002.61,900.633C1000.78,897.603 998.577,895.542 996.107,894.191C993.428,892.726 990.43,892.096 987.231,891.99C987.221,891.99 987.21,891.99 987.2,891.99C978.837,892.229 971.241,893.642 964.472,896.827C957.803,899.965 951.934,904.822 946.925,911.982C946.867,912.065 946.835,912.164 946.835,912.266L946.443,1026.25C946.443,1026.25 921.441,1026.78 921.441,1026.78C921.441,1026.78 921.362,901.821 921.362,901.821C921.362,901.546 921.14,901.323 920.866,901.321L912.653,901.269L912.686,891.561Z" style="fill:rgb(7,52,32);"/>
    </g>
    <g transform="matrix(1,0,0,1,-0.150821,1.2593)">
      <path d="M912.187,890.986C924.971,892.859 934.808,888.317 941.088,876.033L946.324,875.982L946.354,896.386C963.799,883.454 981.716,878.606 1000.1,881.748C1015.59,886.778 1025.18,889.135 1030.31,901.724L1030.94,1026.74L1001.94,1026.74L1002.18,900.891C998.47,894.746 993.198,892.689 987.214,892.49C970.776,892.96 957.326,897.985 947.335,912.268L946.942,1026.74L920.942,1027.29L920.862,901.821L912.151,901.766L912.187,890.986Z" style="fill:rgb(7,52,32);"/>
      <path d="M912.26,890.491C912.117,890.47 911.971,890.513 911.861,890.607C911.751,890.702 911.688,890.84 911.687,890.984L911.651,901.764C911.65,902.039 911.872,902.264 912.148,902.266L920.363,902.318C920.363,902.318 920.442,1027.29 920.442,1027.29C920.442,1027.42 920.496,1027.55 920.592,1027.64C920.688,1027.74 920.818,1027.79 920.952,1027.79L946.952,1027.24C947.224,1027.24 947.441,1027.01 947.442,1026.74L947.835,912.427C952.712,905.496 958.417,900.782 964.898,897.732C971.542,894.605 978.999,893.227 987.207,892.99C990.244,893.093 993.088,893.68 995.627,895.068C997.924,896.325 999.967,898.238 1001.68,901.029C1001.68,901.031 1001.44,1026.74 1001.44,1026.74C1001.44,1026.87 1001.49,1027 1001.59,1027.09C1001.68,1027.19 1001.81,1027.24 1001.94,1027.24L1030.94,1027.24C1031.08,1027.24 1031.2,1027.19 1031.3,1027.09C1031.39,1027 1031.44,1026.87 1031.44,1026.74L1030.81,901.722C1030.81,901.658 1030.8,901.595 1030.77,901.535C1028.51,895.996 1025.41,892.401 1021.34,889.69C1016.05,886.166 1009.11,884.149 1000.25,881.272C1000.23,881.265 1000.21,881.259 1000.18,881.255C990.523,879.604 980.99,880.142 971.586,882.883C963.24,885.315 954.995,889.483 946.853,895.4C946.853,895.4 946.824,875.982 946.824,875.982C946.824,875.848 946.77,875.721 946.676,875.627C946.581,875.533 946.453,875.481 946.319,875.482L941.083,875.533C940.897,875.535 940.728,875.64 940.643,875.806C937.61,881.739 933.739,885.84 929.088,888.251C924.28,890.744 918.643,891.427 912.26,890.491ZM912.686,891.561C919.065,892.406 924.71,891.647 929.548,889.139C934.296,886.678 938.273,882.531 941.394,876.53C941.394,876.53 945.825,876.487 945.825,876.487C945.825,876.487 945.854,896.387 945.854,896.387C945.855,896.575 945.961,896.748 946.13,896.833C946.299,896.917 946.501,896.9 946.652,896.788C954.95,890.636 963.354,886.323 971.866,883.843C981.11,881.148 990.48,880.617 999.977,882.234C1008.72,885.071 1015.57,887.045 1020.78,890.522C1024.67,893.113 1027.64,896.549 1029.81,901.822C1029.81,901.824 1030.44,1026.24 1030.44,1026.24C1030.44,1026.24 1002.44,1026.24 1002.44,1026.24C1002.44,1026.24 1002.68,900.892 1002.68,900.892C1002.68,900.801 1002.65,900.711 1002.61,900.633C1000.78,897.603 998.577,895.542 996.107,894.191C993.428,892.726 990.43,892.096 987.231,891.99C987.221,891.99 987.21,891.99 987.2,891.99C978.837,892.229 971.241,893.642 964.472,896.827C957.803,899.965 951.934,904.822 946.925,911.982C946.867,912.065 946.835,912.164 946.835,912.266L946.443,1026.25C946.443,1026.25 921.441,1026.78 921.441,1026.78C921.441,1026.78 921.362,901.821 921.362,901.821C921.362,901.546 921.14,901.323 920.866,901.321L912.653,901.269L912.686,891.561Z" style="fill:rgb(7,52,32);"/>
    </g>
    <g transform="matrix(1,0,0,1,-16.0772,-8.4322)">
      <path d="M622.847,677.93C623.087,694.106 622.847,699.93 622.847,699.93L602.851,700L602.847,706L622.847,705.93L622.847,775.93L646.847,776L646.847,699.93C653.919,700.043 663.132,698.362 670,692L670,686C662.622,690.588 655.176,693.91 646.847,693.93L646.847,647.93L641.847,643.93C634.407,657.53 623.592,663.24 612.847,663.93L612.847,669.93C612.847,669.93 622.607,661.753 622.847,677.93Z" style="fill:rgb(7,52,32);"/>
      <path d="M622.547,677.934C622.63,683.495 622.656,687.832 622.654,691.13C622.651,696.206 622.584,698.815 622.558,699.631C622.558,699.631 602.85,699.7 602.85,699.7C602.685,699.701 602.552,699.835 602.551,700L602.547,706C602.547,706.08 602.579,706.156 602.636,706.212C602.692,706.269 602.769,706.3 602.848,706.3L622.547,706.231C622.547,706.231 622.547,775.93 622.547,775.93C622.547,776.095 622.681,776.229 622.847,776.23L646.847,776.3C646.926,776.3 647.003,776.269 647.059,776.212C647.116,776.156 647.147,776.08 647.147,776L647.147,700.233C650.848,700.265 655.103,699.807 659.297,698.461C663.143,697.227 666.936,695.247 670.204,692.22C670.265,692.163 670.3,692.084 670.3,692L670.3,686C670.3,685.891 670.241,685.791 670.146,685.738C670.051,685.685 669.934,685.688 669.842,685.745C666.229,687.992 662.6,689.934 658.858,691.329C655.102,692.73 651.231,693.578 647.147,693.627C647.147,693.627 647.147,647.93 647.147,647.93C647.147,647.838 647.106,647.752 647.035,647.695L642.035,643.695C641.966,643.64 641.875,643.618 641.788,643.635C641.702,643.653 641.627,643.708 641.584,643.786C638.237,649.903 634.205,654.413 629.801,657.579C624.495,661.395 618.651,663.256 612.828,663.63C612.67,663.64 612.547,663.771 612.547,663.93L612.547,669.93C612.547,670.046 612.615,670.152 612.72,670.201C612.826,670.251 612.951,670.234 613.04,670.16C613.04,670.16 614.376,669.041 616.056,668.476C617.092,668.127 618.264,667.986 619.321,668.495C620.07,668.857 620.756,669.545 621.302,670.697C622.025,672.221 622.497,674.529 622.547,677.934ZM623.147,677.925C623.095,674.403 622.592,672.017 621.844,670.44C621.224,669.133 620.432,668.365 619.582,667.955C618.378,667.375 617.044,667.511 615.865,667.907C614.713,668.294 613.714,668.926 613.148,669.327C613.147,669.327 613.147,664.21 613.147,664.21C618.984,663.788 624.833,661.891 630.151,658.067C634.544,654.908 638.576,650.434 641.938,644.386C641.938,644.386 646.547,648.074 646.547,648.074C646.547,648.074 646.547,693.93 646.547,693.93C646.547,694.009 646.579,694.086 646.636,694.142C646.692,694.198 646.768,694.23 646.848,694.23C651.115,694.22 655.153,693.351 659.068,691.891C662.688,690.542 666.204,688.686 669.7,686.538C669.7,686.538 669.7,691.868 669.7,691.868C666.521,694.783 662.842,696.693 659.114,697.89C654.871,699.251 650.564,699.689 646.852,699.63C646.772,699.628 646.694,699.659 646.637,699.716C646.58,699.772 646.547,699.849 646.547,699.93L646.547,775.699C646.547,775.699 623.147,775.63 623.147,775.63C623.147,775.63 623.147,705.93 623.147,705.93C623.147,705.85 623.116,705.773 623.059,705.717C623.003,705.661 622.926,705.629 622.846,705.63L603.148,705.699C603.148,705.699 603.151,700.299 603.151,700.299C603.151,700.299 622.848,700.23 622.848,700.23C623.009,700.229 623.141,700.102 623.147,699.942C623.147,699.942 623.251,697.432 623.254,691.13C623.256,687.83 623.23,683.49 623.147,677.925Z" style="fill:rgb(7,52,32);"/>
    </g>
    <g>
      <g transform="matrix(1.56838,0,0,1.2226,-283.856,-230.722)">
        <path d="M1397.53,921.577L1397.53,928.072L1409.01,928.072L1409.01,1029.99L1428.14,1029.99L1428.14,906.234L1420.49,906.234C1414.89,918.009 1412.44,922.004 1397.53,921.577Z" style="fill:rgb(7,52,32);"/>
      </g>
      <g transform="matrix(1.10171,0,0,1.1548,364.878,-155.491)">
        <ellipse cx="1411.38" cy="888.171" rx="16.167" ry="15.44" style="fill:rgb(7,52,32);"/>
      </g>
    </g>
    <g transform="matrix(1,0,0,1,-1.67097,4.28304)">
      <path d="M601.001,816.026L601.001,823.912L608.001,823.912L608.001,1024.46L640,1024C635.64,1020.83 634.197,1016.35 635.001,1009.91C649.82,1019.42 656.651,1024.97 674.001,1024.46C708.679,1023.98 735.806,1002.21 736,960C736.12,933.855 728.459,910.184 688,901C670.036,896.922 649.987,901.75 636.001,911.912L636.001,793.119L629.001,793.119C622.535,806.887 615.559,815.454 601.001,816.026ZM636.001,929.912L636.001,989.912C646.114,1003 656.285,1011.97 674,1013.05C693.784,1010.98 709.404,991.435 712,958C712.064,931.495 701.215,913.979 679,912C661.627,910.05 648.005,918.004 636.001,929.912Z" style="fill:rgb(7,52,32);"/>
      <path d="M600.989,815.726C600.828,815.732 600.701,815.865 600.701,816.026L600.701,823.912C600.701,824.078 600.835,824.212 601.001,824.212L607.701,824.212C607.701,824.212 607.701,1024.46 607.701,1024.46C607.701,1024.54 607.733,1024.62 607.79,1024.67C607.847,1024.73 607.925,1024.76 608.005,1024.76L640.004,1024.3C640.133,1024.3 640.247,1024.21 640.286,1024.09C640.325,1023.97 640.281,1023.83 640.177,1023.76C637.917,1022.11 636.459,1020.11 635.707,1017.65C635.075,1015.58 634.941,1013.19 635.243,1010.42C644.006,1016.06 649.992,1020.27 657.113,1022.63C661.857,1024.21 667.105,1024.96 674.007,1024.76C692.267,1024.5 708.439,1018.37 719.729,1006.49C729.978,995.707 736.207,980.182 736.3,960.001C736.368,945.272 733.965,931.327 724.689,920.287C717.421,911.636 705.927,904.762 688.066,900.707C679.163,898.686 669.749,898.842 660.809,900.745C651.831,902.656 643.33,906.329 636.301,911.327C636.301,911.327 636.301,793.119 636.301,793.119C636.301,792.954 636.166,792.819 636.001,792.819L629.001,792.819C628.884,792.819 628.779,792.886 628.729,792.992C625.627,799.597 622.411,805.002 618.282,808.887C613.879,813.029 608.437,815.434 600.989,815.726ZM601.301,816.313C608.769,815.964 614.248,813.506 618.693,809.324C622.834,805.427 626.077,800.024 629.191,793.419C629.191,793.419 635.701,793.419 635.701,793.419C635.701,793.419 635.701,911.912 635.701,911.912C635.701,912.025 635.764,912.128 635.864,912.179C635.965,912.231 636.086,912.221 636.177,912.155C643.231,907.029 651.836,903.268 660.934,901.331C669.79,899.447 679.114,899.291 687.934,901.293C705.63,905.31 717.028,912.101 724.23,920.673C733.413,931.603 735.767,945.416 735.7,959.999C735.608,979.999 729.452,995.39 719.294,1006.08C708.111,1017.85 692.084,1023.91 673.996,1024.16C673.995,1024.16 673.993,1024.16 673.992,1024.16C667.173,1024.36 661.988,1023.62 657.301,1022.06C650.114,1019.68 644.095,1015.39 635.163,1009.66C635.076,1009.6 634.967,1009.6 634.873,1009.64C634.78,1009.68 634.716,1009.77 634.703,1009.88C634.32,1012.94 634.443,1015.57 635.134,1017.83C635.844,1020.15 637.152,1022.09 639.136,1023.71C639.136,1023.71 608.301,1024.15 608.301,1024.15C608.301,1024.15 608.301,823.912 608.301,823.912C608.301,823.746 608.166,823.612 608.001,823.612L601.301,823.612L601.301,816.313ZM635.789,929.699C635.733,929.755 635.701,929.832 635.701,929.912L635.701,989.912C635.701,989.978 635.723,990.043 635.763,990.095C640.884,996.722 646.021,1002.3 652.134,1006.33C658.162,1010.32 665.138,1012.81 673.982,1013.35C673.998,1013.35 674.015,1013.35 674.031,1013.34C683.473,1012.36 691.977,1007.43 698.591,998.931C705.919,989.514 710.926,975.704 712.299,958.023C712.3,958.016 712.3,958.008 712.3,958.001C712.33,945.659 709.998,935.258 705.275,927.448C699.782,918.366 691.059,912.774 679.03,911.701C670.269,910.719 662.455,912.238 655.319,915.506C648.228,918.754 641.806,923.731 635.789,929.699ZM636.301,930.037C642.239,924.16 648.574,919.256 655.569,916.052C662.611,912.827 670.321,911.328 678.967,912.298C678.969,912.298 678.971,912.299 678.973,912.299C690.791,913.352 699.365,918.837 704.762,927.759C709.434,935.485 711.728,945.777 711.7,957.985C710.337,975.522 705.385,989.222 698.117,998.562C691.62,1006.91 683.273,1011.77 673.999,1012.75C665.281,1012.21 658.406,1009.76 652.465,1005.83C646.429,1001.85 641.357,996.344 636.301,989.81C636.301,989.81 636.301,930.037 636.301,930.037L636.301,930.037Z" style="fill:rgb(7,52,32);"/>
    </g>
    <g transform="matrix(-1,0,0,1,2173,3.1947)">
      <path d="M601.001,816.026L601.001,823.912L608.001,823.912L608.001,1024.46L640,1024C635.64,1020.83 634.197,1016.35 635.001,1009.91C649.82,1019.42 656.651,1024.97 674.001,1024.46C708.679,1023.98 735.806,1002.21 736,960C736.12,933.855 728.459,910.184 688,901C670.036,896.922 649.987,901.75 636.001,911.912L636.001,793.119L629.001,793.119C622.535,806.887 615.559,815.454 601.001,816.026ZM636.001,929.912L636.001,989.912C646.114,1003 656.285,1011.97 674,1013.05C693.784,1010.98 709.404,991.435 712,958C712.064,931.495 701.215,913.979 679,912C661.627,910.05 648.005,918.004 636.001,929.912Z" style="fill:rgb(7,52,32);"/>
      <path d="M600.701,816.026C600.701,815.865 600.828,815.732 600.989,815.726C608.437,815.434 613.879,813.029 618.282,808.887C622.411,805.002 625.627,799.597 628.729,792.992C628.779,792.886 628.884,792.819 629.001,792.819L636.001,792.819C636.166,792.819 636.301,792.954 636.301,793.119L636.301,911.327C643.33,906.329 651.831,902.656 660.809,900.745C669.749,898.842 679.163,898.686 688.066,900.707C705.927,904.762 717.421,911.636 724.689,920.287C733.965,931.327 736.368,945.272 736.3,960.001C736.207,980.182 729.978,995.707 719.729,1006.49C708.439,1018.37 692.267,1024.5 674.007,1024.76C667.105,1024.96 661.857,1024.21 657.113,1022.63C649.992,1020.27 644.006,1016.06 635.243,1010.42C634.941,1013.19 635.075,1015.58 635.707,1017.65C636.459,1020.11 637.917,1022.11 640.177,1023.76C640.281,1023.83 640.325,1023.97 640.286,1024.09C640.247,1024.21 640.133,1024.3 640.004,1024.3L608.005,1024.76C607.925,1024.76 607.847,1024.73 607.79,1024.67C607.733,1024.62 607.701,1024.54 607.701,1024.46L607.701,824.212C607.701,824.212 601.001,824.212 601.001,824.212C600.835,824.212 600.701,824.078 600.701,823.912L600.701,816.026ZM601.301,816.313L601.301,823.612C601.301,823.612 608.001,823.612 608.001,823.612C608.166,823.612 608.301,823.746 608.301,823.912L608.301,1024.15C608.301,1024.15 639.136,1023.71 639.136,1023.71C637.152,1022.09 635.844,1020.15 635.134,1017.83C634.443,1015.57 634.32,1012.94 634.703,1009.88C634.716,1009.77 634.78,1009.68 634.873,1009.64C634.967,1009.6 635.076,1009.6 635.163,1009.66C644.095,1015.39 650.114,1019.68 657.301,1022.06C661.988,1023.62 667.173,1024.36 673.992,1024.16C673.993,1024.16 673.995,1024.16 673.996,1024.16C692.084,1023.91 708.111,1017.85 719.294,1006.08C729.452,995.39 735.608,979.999 735.7,959.999C735.767,945.416 733.413,931.603 724.23,920.673C717.028,912.101 705.63,905.31 687.934,901.293C679.114,899.291 669.79,899.447 660.934,901.331C651.836,903.268 643.231,907.029 636.177,912.155C636.086,912.221 635.965,912.231 635.864,912.179C635.764,912.128 635.701,912.025 635.701,911.912L635.701,793.419C635.701,793.419 629.191,793.419 629.191,793.419C626.077,800.024 622.834,805.427 618.693,809.324C614.248,813.506 608.769,815.964 601.301,816.313ZM635.701,929.912C635.701,929.832 635.733,929.755 635.789,929.699C641.806,923.731 648.228,918.754 655.319,915.506C662.455,912.238 670.269,910.719 679.03,911.701C691.059,912.774 699.782,918.366 705.275,927.448C709.998,935.258 712.33,945.659 712.3,958.001C712.3,958.008 712.3,958.016 712.299,958.023C710.926,975.704 705.919,989.514 698.591,998.931C691.977,1007.43 683.473,1012.36 674.031,1013.34C674.015,1013.35 673.998,1013.35 673.982,1013.35C665.138,1012.81 658.162,1010.32 652.134,1006.33C646.021,1002.3 640.884,996.722 635.763,990.095C635.723,990.043 635.701,989.978 635.701,989.912L635.701,929.912ZM636.301,930.037L636.301,989.81C641.357,996.344 646.429,1001.85 652.465,1005.83C658.405,1009.76 665.279,1012.21 673.991,1012.75C683.27,1011.77 691.619,1006.91 698.117,998.562C705.384,989.223 710.336,975.524 711.7,957.992C711.728,945.779 709.435,935.485 704.762,927.759C699.365,918.837 690.791,913.352 678.973,912.299C678.971,912.299 678.969,912.298 678.967,912.298C670.321,911.328 662.611,912.827 655.569,916.052C648.574,919.255 642.239,924.16 636.301,930.037L636.301,930.037Z" style="fill:rgb(7,52,32);"/>
    </g>
    <g transform="matrix(1.09391,0,0,1.0764,-84.5181,-78.5961)">
      <path d="M872,943L872,904C868.133,897.965 864.571,896.004 853,896C842.922,895.996 833.74,898.359 826,904C831.933,905.041 835.126,910.168 835,921C834.897,929.86 826.539,935.558 816,936C808.042,936.334 801.055,931.393 801.362,918C801.802,898.858 824.198,889.307 852,888C866.406,887.89 882.638,891.624 894,903.635C901.175,911.22 899.422,916.44 900,924L900,1028.12L868,1028C872.847,1023.5 875.185,1018.4 872,1012C868.795,1023.11 857.906,1030.35 838.5,1028.5C818.547,1026.6 802.503,1010.9 801.362,988.915C799.997,962.6 814.12,949.848 836,942C848.399,937.553 861.194,940.062 872,943ZM870.947,951.991C865.25,949.047 858.897,946.972 852,948C840.289,949.745 832.149,956.226 828,968C823.903,979.629 824.875,989.009 826,999C827.427,1011.68 835.498,1016.07 845.058,1016C857.395,1015.91 867.054,1010.49 871.066,1000L870.947,951.991Z" style="fill:rgb(7,52,32);"/>
      <path d="M871.726,942.637C865.151,940.862 857.856,939.272 850.37,939.305C845.582,939.327 840.716,940.013 835.909,941.737C824.762,945.736 815.623,951.007 809.496,958.673C803.529,966.138 800.411,975.874 801.089,988.93C801.653,999.804 805.841,1009.15 812.337,1016.07C819.06,1023.24 828.258,1027.8 838.474,1028.78C848.757,1029.76 856.663,1028.19 862.319,1024.87C867.22,1021.99 870.439,1017.79 872.055,1012.76C873.334,1015.63 873.47,1018.23 872.751,1020.63C871.972,1023.22 870.2,1025.58 867.815,1027.79C867.732,1027.87 867.703,1027.99 867.744,1028.1C867.785,1028.21 867.886,1028.28 867.999,1028.28L899.999,1028.4C900.072,1028.4 900.142,1028.37 900.194,1028.32C900.245,1028.27 900.274,1028.2 900.274,1028.12L900.274,924C900.274,923.993 900.274,923.986 900.273,923.978C899.896,919.034 900.501,915.085 898.991,910.83C898.173,908.525 896.739,906.129 894.198,903.442C888.615,897.541 881.864,893.625 874.729,891.177C867.272,888.619 859.396,887.665 851.998,887.721C851.994,887.721 851.991,887.721 851.987,887.722C837.232,888.415 823.995,891.43 814.732,896.952C806.421,901.907 801.298,908.878 801.088,917.993C800.955,923.791 802.181,928.024 804.246,930.946C807.035,934.894 811.359,936.474 816.011,936.278C822.056,936.025 827.389,934.055 830.897,930.77C833.603,928.237 835.228,924.923 835.274,921.003C835.34,915.393 834.515,911.297 832.899,908.493C831.445,905.969 829.354,904.474 826.68,903.854C830.448,901.201 834.552,899.313 838.93,898.086C843.362,896.843 848.073,896.277 853,896.279C859.028,896.281 862.863,896.81 865.701,898.189C868.218,899.413 869.94,901.309 871.725,904.082C871.726,904.083 871.726,942.637 871.726,942.637L871.726,942.637ZM871.929,943.269C872.011,943.292 872.099,943.274 872.167,943.221C872.235,943.168 872.274,943.087 872.274,943L872.274,904C872.274,903.946 872.259,903.893 872.23,903.848C870.365,900.937 868.565,898.964 865.938,897.687C863.047,896.281 859.142,895.723 853,895.721C848.022,895.72 843.262,896.293 838.784,897.548C834.142,898.85 829.803,900.885 825.84,903.774C825.75,903.839 825.708,903.953 825.733,904.062C825.757,904.172 825.844,904.256 825.953,904.275C828.766,904.768 830.946,906.206 832.426,908.774C834.004,911.514 834.79,915.517 834.726,920.997C834.671,925.666 832.272,929.436 828.463,931.994C825.161,934.211 820.805,935.519 815.989,935.722C811.524,935.909 807.368,934.409 804.691,930.621C802.681,927.776 801.507,923.651 801.637,918.007C801.842,909.087 806.877,902.281 815.01,897.433C824.207,891.95 837.352,888.969 852.002,888.279C859.345,888.223 867.158,889.168 874.554,891.705C881.608,894.125 888.283,897.994 893.802,903.829C896.277,906.445 897.678,908.774 898.475,911.019C899.967,915.225 899.354,919.129 899.726,924.015C899.726,924.011 899.726,1021.92 899.726,1027.84C899.726,1027.84 868.692,1027.72 868.692,1027.72C870.9,1025.57 872.527,1023.29 873.276,1020.79C874.085,1018.09 873.874,1015.15 872.245,1011.87C872.194,1011.77 872.087,1011.71 871.975,1011.72C871.863,1011.73 871.769,1011.81 871.737,1011.92C870.238,1017.12 867.036,1021.45 862.044,1024.39C856.467,1027.66 848.666,1029.19 838.526,1028.22C828.445,1027.26 819.368,1022.75 812.733,1015.69C806.323,1008.86 802.193,999.631 801.636,988.9C800.967,976.011 804.031,966.394 809.921,959.024C815.99,951.432 825.05,946.223 836.091,942.263C840.838,940.56 845.644,939.884 850.373,939.863C857.939,939.829 865.309,941.469 871.929,943.269ZM871.221,951.991C871.221,951.886 871.163,951.79 871.071,951.743C868.156,950.236 865.07,948.957 861.829,948.198C858.681,947.46 855.387,947.214 851.96,947.724C845.993,948.613 840.946,950.724 836.872,954.122C832.876,957.453 829.814,962.024 827.742,967.906C825.786,973.457 824.979,978.498 824.792,983.337C824.586,988.677 825.135,993.77 825.728,999.032C826.405,1005.05 828.569,1009.23 831.664,1011.96C835.179,1015.07 839.905,1016.32 845.06,1016.28C851.041,1016.23 856.398,1014.95 860.798,1012.45C865.566,1009.74 869.214,1005.61 871.321,1000.1C871.334,1000.07 871.34,1000.03 871.34,999.999L871.221,951.991ZM870.673,952.163L870.791,999.948C868.73,1005.31 865.174,1009.32 860.531,1011.96C856.205,1014.42 850.937,1015.68 845.056,1015.72C840.043,1015.76 835.442,1014.56 832.024,1011.54C829.016,1008.88 826.931,1004.82 826.272,998.968C825.683,993.735 825.135,988.669 825.34,983.359C825.525,978.572 826.324,973.585 828.258,968.094C830.294,962.317 833.296,957.825 837.22,954.553C841.221,951.215 846.18,949.149 852.04,948.276C855.396,947.776 858.623,948.019 861.706,948.741C864.848,949.477 867.841,950.71 870.673,952.163L870.673,952.163Z" style="fill:rgb(7,52,32);"/>
    </g>
    <g transform="matrix(1,0,0,1,-13.0772,-0.502629)">
      <path d="M667,656L667,662.664L672,662.664L672,768L696,768L696,696C702.053,692.161 706.818,688.37 716,688C728.149,687.51 728.571,695.668 729,703L728,768L750,768.07L750,703.063C749.767,690.048 735,681.44 716,682C707.7,682.245 701.543,685.499 696,690L696,635.924L690,635.924C686.89,647.465 676.239,653.728 667,656Z" style="fill:rgb(7,52,32);"/>
      <path d="M666.928,655.709C666.794,655.742 666.7,655.862 666.7,656L666.7,662.664C666.7,662.83 666.834,662.964 667,662.964L671.7,662.964C671.7,669.121 671.7,768 671.7,768C671.7,768.166 671.834,768.3 672,768.3L696,768.3C696.166,768.3 696.3,768.166 696.3,768L696.3,696.165C700.065,693.77 703.342,691.401 707.534,689.891C709.96,689.018 712.695,688.434 716.012,688.3C721.42,688.082 724.454,689.595 726.183,692.014C728.26,694.92 728.471,699.084 728.7,703.006C728.7,703.006 727.7,767.995 727.7,767.995C727.699,768.076 727.73,768.153 727.786,768.21C727.842,768.267 727.919,768.3 727.999,768.3L749.999,768.37C750.079,768.371 750.155,768.339 750.212,768.283C750.268,768.227 750.3,768.15 750.3,768.07L750.3,703.063C750.3,703.061 750.3,703.06 750.3,703.058C750.191,696.957 746.947,691.804 741.58,688.085C735.367,683.78 726.299,681.396 715.991,681.7C711.948,681.819 708.409,682.646 705.2,683.979C701.955,685.327 699.048,687.194 696.301,689.374C696.3,689.375 696.3,635.924 696.3,635.924C696.3,635.758 696.166,635.624 696,635.624L690,635.624C689.864,635.624 689.746,635.715 689.71,635.845C688.233,641.326 685.034,645.602 681.097,648.815C676.827,652.301 671.688,654.538 666.928,655.709ZM667.3,656.234C672.075,655.029 677.203,652.768 681.477,649.28C685.453,646.034 688.691,641.727 690.229,636.223C690.229,636.224 695.7,636.224 695.7,636.224C695.7,636.224 695.7,690 695.7,690C695.7,690.116 695.767,690.221 695.871,690.271C695.976,690.321 696.099,690.306 696.189,690.233C699.036,687.921 702.046,685.939 705.43,684.533C708.576,683.226 712.046,682.417 716.009,682.3C726.17,682.001 735.114,684.334 741.238,688.578C746.435,692.18 749.593,697.159 749.7,703.066C749.7,703.066 749.7,767.769 749.7,767.769C749.7,767.769 728.305,767.701 728.305,767.701C728.305,767.701 729.3,703.005 729.3,703.005C729.3,702.997 729.3,702.99 729.299,702.982C729.063,698.942 728.811,694.659 726.671,691.665C724.852,689.119 721.68,687.471 715.988,687.7C712.601,687.837 709.808,688.435 707.33,689.327C703.044,690.87 699.702,693.297 695.839,695.747C695.753,695.802 695.7,695.897 695.7,696L695.7,767.7C695.7,767.7 672.3,767.7 672.3,767.7C672.3,767.7 672.3,662.664 672.3,662.664C672.3,662.498 672.166,662.364 672,662.364L667.3,662.364L667.3,656.234Z" style="fill:rgb(7,52,32);"/>
    </g>
    <path d="M1159.14,874.058L1130,876C1148.26,866.495 1193.93,850.067 1210,850C1222.75,849.947 1234.65,851.249 1246,853.121C1263.62,856.025 1279.92,860.299 1296,863L1296,828L1286,828L1286,820C1299.03,819.059 1309.9,809.331 1317,798C1323.69,787.76 1333.62,784.586 1342,786C1362.93,789.531 1365.09,804.088 1365,822C1364.87,847.693 1343.74,871.963 1320,872L1320,1028.55L1296,1028L1296,872C1271.54,862.642 1241.78,854.642 1210,854C1189.22,853.58 1173.6,861.133 1160,874L1122,912.877C1126.53,912.802 1131.29,919.025 1135.91,927.827C1146.09,898.258 1174.04,877 1206.9,877C1234.48,877 1259.94,892.704 1273,915C1273,915 1257.97,923.77 1257.92,923.678C1236.6,936.55 1166.19,978.895 1160.36,980.164C1170.42,995.692 1188,1005.99 1208,1005.99C1237.92,1005.99 1262.45,982.926 1264.42,953.789L1281.65,945.175C1281.88,947.586 1282,950.029 1282,952.5C1282,994.17 1248.35,1028 1206.9,1028C1180.77,1028 1157.73,1014.55 1144.28,994.169C1139.57,987.911 1134.82,979.248 1130.8,968C1125.74,953.825 1114.25,927.761 1101,933L1080,958.393L1080,1028L1052,1028L1054,828L1044,828L1044,820.114C1055.05,817.923 1068.7,807.267 1074.5,797.207L1080,797.207L1080,924L1130,876C1149.5,875.133 1154.84,874.371 1159.14,874.058ZM1256,916L1156,972C1145.98,959.622 1157,903.59 1184,894C1214.85,883.041 1254.76,906.523 1256,916ZM1320,858L1320,802C1321.72,796.936 1325.25,793.58 1334,790C1335.88,789.229 1338.02,788.968 1340,788.893C1345.08,788.7 1350.05,790.195 1355,795C1362.16,801.952 1360.7,809.629 1360,822C1359.34,833.725 1351.39,842.996 1342,850C1332.92,856.772 1327.69,857.405 1320,858Z" style="fill:rgb(7,52,32);"/>
    <path d="M1129.86,875.734L1129.85,875.743L1129.83,875.754L1129.82,875.762L1129.81,875.77L1129.8,875.779L1129.79,875.784L1080.3,923.296C1080.3,923.296 1080.3,797.207 1080.3,797.207C1080.3,797.041 1080.17,796.907 1080,796.907L1074.5,796.907C1074.39,796.907 1074.29,796.964 1074.24,797.057C1071.38,802.014 1066.6,807.114 1061.18,811.265C1055.66,815.483 1049.47,818.723 1043.94,819.819C1043.8,819.847 1043.7,819.971 1043.7,820.114L1043.7,828C1043.7,828.166 1043.83,828.3 1044,828.3L1053.7,828.3C1053.7,828.3 1051.7,1028 1051.7,1028C1051.7,1028.08 1051.73,1028.15 1051.79,1028.21C1051.84,1028.27 1051.92,1028.3 1052,1028.3L1080,1028.3C1080.17,1028.3 1080.3,1028.17 1080.3,1028L1080.3,958.501C1080.3,958.501 1101.18,933.251 1101.18,933.251C1104.37,932.02 1107.44,932.654 1110.35,934.501C1112.81,936.067 1115.15,938.498 1117.33,941.416C1123.12,949.188 1127.77,960.403 1130.52,968.101C1132.32,973.157 1134.28,977.692 1136.31,981.722C1138.81,986.686 1141.43,990.884 1144.04,994.348L1144.04,994.342C1150.89,1004.73 1160.22,1013.32 1171.18,1019.26C1181.82,1025.03 1193.98,1028.3 1206.9,1028.3C1227.74,1028.3 1246.62,1019.78 1260.28,1006.02C1273.88,992.302 1282.3,973.381 1282.3,952.5C1282.3,951.266 1282.27,950.039 1282.21,948.819C1282.15,947.587 1282.07,946.362 1281.95,945.146C1281.94,945.048 1281.88,944.96 1281.8,944.912C1281.71,944.865 1281.61,944.862 1281.52,944.907L1264.29,953.521C1264.19,953.568 1264.13,953.663 1264.12,953.769C1263.14,968.348 1256.47,981.399 1246.3,990.769C1236.26,1000.03 1222.79,1005.69 1208,1005.69C1198.23,1005.69 1189.04,1003.22 1181.04,998.878C1172.86,994.441 1165.91,988.049 1160.83,980.339C1163.92,979.286 1175.68,972.726 1190.22,964.287C1213.91,950.535 1245.04,931.804 1258.04,923.956L1258.21,923.872C1258.45,923.75 1258.93,923.479 1259.59,923.106C1263.43,920.933 1273.15,915.259 1273.15,915.259C1273.22,915.219 1273.27,915.153 1273.29,915.076C1273.31,914.999 1273.3,914.917 1273.26,914.848C1266.61,903.5 1256.76,893.852 1245.06,887.098C1233.68,880.531 1220.55,876.7 1206.9,876.7C1190.58,876.7 1175.46,881.927 1163.11,890.805C1150.69,899.735 1141.07,912.361 1135.85,927.078C1133.67,922.986 1131.46,919.483 1129.26,916.954C1127.05,914.416 1124.84,912.858 1122.68,912.611C1122.68,912.611 1160.21,874.214 1160.21,874.214C1167.15,867.648 1174.62,862.47 1183.04,859.04C1191.04,855.778 1199.91,854.096 1209.99,854.3C1225.14,854.606 1239.83,856.586 1253.7,859.588C1268.82,862.86 1282.98,867.348 1295.7,872.206C1295.7,878.531 1295.7,1028 1295.7,1028C1295.7,1028.16 1295.83,1028.3 1295.99,1028.3L1319.99,1028.85C1320.07,1028.85 1320.15,1028.82 1320.21,1028.76C1320.27,1028.7 1320.3,1028.63 1320.3,1028.55L1320.3,872.298C1332.47,872.176 1343.94,865.75 1352.26,856.045C1360.18,846.795 1365.24,834.567 1365.3,822.001C1365.35,812.95 1364.81,804.752 1361.6,798.382C1358.41,792.036 1352.59,787.482 1342.05,785.704C1337.43,784.924 1332.34,785.522 1327.57,787.904C1323.59,789.892 1319.83,793.123 1316.75,797.836C1316.75,797.837 1316.75,797.839 1316.75,797.841C1313.28,803.376 1308.9,808.528 1303.82,812.447C1298.57,816.493 1292.55,819.226 1285.98,819.701C1285.82,819.712 1285.7,819.843 1285.7,820L1285.7,828C1285.7,828.08 1285.73,828.156 1285.79,828.212C1285.84,828.269 1285.92,828.3 1286,828.3L1295.7,828.3C1295.7,828.3 1295.7,862.645 1295.7,862.645C1282.83,860.466 1269.82,857.293 1256.09,854.634C1252.79,853.994 1249.44,853.384 1246.05,852.825C1240.22,851.864 1234.25,851.053 1228.09,850.498C1222.24,849.97 1216.22,849.674 1210,849.7C1203.02,849.729 1190.49,852.827 1177.02,857.111C1159.42,862.713 1140.23,870.338 1129.86,875.734ZM1159.42,874.168C1159.43,874.128 1159.44,874.083 1159.44,874.037C1159.42,873.872 1159.28,873.747 1159.12,873.758L1131.43,875.604C1142.03,870.271 1160.34,863.048 1177.2,857.683C1190.6,853.422 1203.06,850.329 1210,850.3C1216.2,850.274 1222.2,850.57 1228.04,851.096C1234.18,851.649 1240.14,852.458 1245.95,853.417C1249.34,853.975 1252.68,854.584 1255.98,855.223C1269.83,857.907 1282.96,861.114 1295.95,863.296C1296.04,863.31 1296.13,863.286 1296.19,863.229C1296.26,863.172 1296.3,863.088 1296.3,863L1296.3,828C1296.3,827.92 1296.27,827.844 1296.21,827.788C1296.16,827.732 1296.08,827.7 1296,827.7L1286.3,827.7C1286.3,827.7 1286.3,820.278 1286.3,820.278C1292.88,819.739 1298.91,816.984 1304.18,812.922C1309.33,808.961 1313.75,803.756 1317.25,798.162C1320.27,793.551 1323.94,790.386 1327.84,788.441C1332.49,786.119 1337.44,785.535 1341.95,786.296C1352.24,788.032 1357.95,792.453 1361.07,798.652C1364.24,804.947 1364.74,813.053 1364.7,821.999C1364.64,834.421 1359.64,846.509 1351.8,855.655C1343.53,865.304 1332.11,871.681 1320,871.7C1319.83,871.7 1319.7,871.834 1319.7,872L1319.7,1028.24C1319.7,1028.24 1296.3,1027.71 1296.3,1027.71C1296.3,1020.22 1296.3,872 1296.3,872C1296.3,871.876 1296.22,871.764 1296.11,871.72C1283.31,866.823 1269.06,862.297 1253.83,859.001C1239.92,855.991 1225.19,854.007 1210.01,853.7C1199.83,853.495 1190.89,855.193 1182.81,858.484C1174.32,861.943 1166.79,867.161 1159.79,873.782C1159.79,873.785 1159.79,873.788 1159.79,873.79L1159.42,874.168ZM1159.25,874.334L1121.79,912.668C1121.7,912.755 1121.68,912.884 1121.72,912.996C1121.77,913.108 1121.88,913.179 1122.01,913.177C1124.24,913.14 1126.51,914.706 1128.81,917.348C1131.09,919.972 1133.38,923.659 1135.64,927.966C1135.7,928.072 1135.81,928.135 1135.93,928.126C1136.05,928.117 1136.15,928.038 1136.19,927.924C1141.31,913.047 1150.95,900.282 1163.46,891.292C1175.71,882.485 1190.71,877.3 1206.9,877.3C1220.44,877.3 1233.47,881.102 1244.76,887.618C1256.28,894.268 1266,903.744 1272.59,914.893C1271.02,915.808 1262.76,920.623 1259.3,922.584C1258.65,922.952 1258.17,923.219 1257.94,923.34C1257.9,923.36 1257.86,923.379 1257.84,923.388C1257.81,923.395 1257.79,923.406 1257.76,923.421C1244.79,931.255 1213.63,950.005 1189.92,963.768C1174.71,972.595 1162.57,979.376 1160.3,979.871C1160.2,979.892 1160.12,979.959 1160.08,980.05C1160.05,980.141 1160.06,980.244 1160.11,980.327C1165.26,988.272 1172.36,994.856 1180.75,999.406C1188.84,1003.8 1198.13,1006.29 1208,1006.29C1222.95,1006.29 1236.56,1000.57 1246.71,991.21C1256.95,981.775 1263.67,968.648 1264.71,953.98C1264.71,953.981 1281.39,945.639 1281.39,945.639C1281.49,946.702 1281.56,947.772 1281.61,948.848C1281.67,950.058 1281.7,951.276 1281.7,952.5C1281.7,973.216 1273.35,991.987 1259.85,1005.59C1246.31,1019.25 1227.58,1027.7 1206.9,1027.7C1194.08,1027.7 1182.02,1024.45 1171.47,1018.73C1160.59,1012.83 1151.33,1004.31 1144.53,994.003C1144.53,993.998 1144.52,993.993 1144.52,993.988C1141.93,990.549 1139.33,986.38 1136.84,981.452C1134.82,977.442 1132.88,972.93 1131.08,967.899C1127.82,958.766 1121.9,944.719 1114.56,937.219C1110.38,932.953 1105.75,930.801 1100.89,932.721C1100.84,932.74 1100.8,932.77 1100.77,932.809L1079.77,958.202C1079.72,958.256 1079.7,958.323 1079.7,958.393L1079.7,1027.7C1079.7,1027.7 1052.3,1027.7 1052.3,1027.7C1052.3,1027.7 1054.3,828.003 1054.3,828.003C1054.3,827.923 1054.27,827.846 1054.21,827.789C1054.16,827.732 1054.08,827.7 1054,827.7L1044.3,827.7C1044.3,827.7 1044.3,820.359 1044.3,820.359C1049.85,819.202 1056.03,815.958 1061.54,811.741C1066.98,807.582 1071.77,802.477 1074.67,797.507C1074.67,797.507 1079.7,797.507 1079.7,797.507C1079.7,797.507 1079.7,924 1079.7,924C1079.7,924.12 1079.77,924.229 1079.88,924.276C1079.99,924.323 1080.12,924.3 1080.21,924.216L1130.13,876.295C1136.19,876.024 1140.89,875.764 1144.6,875.525C1152.77,874.998 1156.21,874.572 1159.16,874.357C1159.19,874.354 1159.23,874.346 1159.25,874.334ZM1256.15,916.262C1256.25,916.202 1256.31,916.083 1256.3,915.961C1256.06,914.137 1254.44,911.793 1251.74,909.285C1246.08,904.048 1235.64,898.016 1223.5,894.318C1210.99,890.511 1196.67,889.18 1183.9,893.717C1171.31,898.19 1162.15,912.689 1156.97,928.215C1153.35,939.097 1151.67,950.476 1152.12,959.226C1152.42,964.943 1153.63,969.545 1155.77,972.189C1155.86,972.302 1156.02,972.333 1156.15,972.262L1256.15,916.262ZM1255.67,915.84L1156.08,971.613C1154.1,969.013 1153,964.615 1152.72,959.196C1152.28,950.507 1153.94,939.209 1157.54,928.405C1162.65,913.064 1171.66,898.702 1184.1,894.283C1196.75,889.789 1210.93,891.121 1223.32,894.892C1235.37,898.559 1245.72,904.532 1251.33,909.725C1253.81,912.017 1255.36,914.139 1255.67,915.84L1255.67,915.84ZM1257.98,923.385L1258,923.388C1258.08,923.41 1258.14,923.463 1258.18,923.535C1258.15,923.474 1258.09,923.406 1257.98,923.385ZM1319.7,858C1319.7,858.084 1319.74,858.163 1319.8,858.22C1319.86,858.277 1319.94,858.306 1320.02,858.299C1324.35,857.964 1327.9,857.614 1331.79,856.182C1334.87,855.052 1338.15,853.248 1342.18,850.24C1346.85,846.761 1351.16,842.724 1354.4,838.108C1357.74,833.363 1359.96,828.006 1360.3,822.017C1360.69,815.049 1361.32,809.565 1360.54,804.861C1359.91,801.133 1358.4,797.888 1355.21,794.785C1352.9,792.547 1350.59,791.019 1348.27,790.039C1345.53,788.883 1342.78,788.487 1339.99,788.593C1338.98,788.631 1337.93,788.717 1336.9,788.892C1335.87,789.066 1334.85,789.33 1333.89,789.722C1329.3,791.599 1326.14,793.419 1323.91,795.447C1321.83,797.343 1320.56,799.422 1319.72,801.903C1319.7,801.935 1319.7,801.967 1319.7,802L1319.7,858ZM1320.3,857.676L1320.3,802.05C1321.11,799.686 1322.33,797.701 1324.32,795.891C1326.5,793.9 1329.61,792.121 1334.11,790.278C1335.03,789.902 1336.01,789.651 1337,789.483C1338.01,789.313 1339.03,789.23 1340.01,789.192C1342.71,789.09 1345.38,789.472 1348.04,790.592C1350.3,791.546 1352.55,793.037 1354.79,795.215C1357.88,798.216 1359.34,801.354 1359.94,804.96C1360.72,809.628 1360.09,815.07 1359.7,821.983C1359.37,827.857 1357.19,833.109 1353.91,837.763C1350.7,842.328 1346.44,846.318 1341.82,849.76C1337.85,852.724 1334.61,854.505 1331.59,855.619C1327.85,856.996 1324.42,857.353 1320.3,857.676L1320.3,857.676Z" style="fill:rgb(7,52,32);"/>
    <g transform="matrix(1,0,0,1,440.027,1.38065)">
      <path d="M1281.63,945.183C1281.88,947.631 1282,950.112 1282,952.621C1282,994.224 1247.95,1028 1206,1028C1164.05,1028 1130.9,993.588 1132,952C1133.08,911.272 1164.51,877.61 1206,877.242C1234.53,876.989 1259.41,892.707 1272.41,915.879L1161,981C1181.09,1005.72 1205.35,1013.42 1234,999C1256.26,987.801 1260.86,971.128 1264,954L1281.63,945.183ZM1256,916L1156,972C1145.98,943.075 1146.75,918.469 1184,894C1213.15,883.53 1243.58,899.039 1256,916Z" style="fill:rgb(7,52,32);"/>
      <path d="M1281.93,945.153C1281.92,945.055 1281.87,944.968 1281.78,944.92C1281.69,944.873 1281.59,944.871 1281.5,944.915L1263.87,953.732C1263.78,953.774 1263.72,953.853 1263.7,953.946C1262.01,963.188 1259.9,972.299 1254.78,980.481C1250.46,987.388 1244.01,993.63 1233.87,998.732C1219.52,1005.95 1206.28,1007.6 1194.12,1004.32C1182.21,1001.1 1171.33,993.15 1161.45,981.082C1161.45,981.082 1272.56,916.138 1272.56,916.138C1272.7,916.055 1272.75,915.875 1272.67,915.732C1266.04,903.918 1256.34,894.033 1244.64,887.199C1233.3,880.576 1220.1,876.817 1206,876.942C1185.17,877.126 1166.87,885.667 1153.63,899.273C1140.4,912.878 1132.24,931.548 1131.7,951.992C1131.14,972.904 1139.22,992.008 1152.7,1005.87C1166.15,1019.69 1184.98,1028.3 1206,1028.3C1227,1028.3 1246.03,1019.87 1259.83,1006.23C1273.71,992.527 1282.3,973.561 1282.3,952.621C1282.3,951.368 1282.27,950.121 1282.21,948.883C1282.15,947.632 1282.06,946.388 1281.93,945.153ZM1281.38,945.646C1281.48,946.729 1281.56,947.817 1281.61,948.912C1281.67,950.141 1281.7,951.378 1281.7,952.621C1281.7,973.394 1273.17,992.209 1259.41,1005.81C1245.71,1019.33 1226.84,1027.7 1206,1027.7C1185.14,1027.7 1166.47,1019.16 1153.13,1005.45C1139.76,991.701 1131.75,972.751 1132.3,952.008C1132.84,931.72 1140.93,913.192 1154.07,899.691C1167.19,886.196 1185.34,877.725 1206,877.542C1219.99,877.418 1233.09,881.147 1244.34,887.717C1255.86,894.448 1265.43,904.161 1272,915.769C1272,915.769 1160.85,980.741 1160.85,980.741C1160.77,980.785 1160.72,980.86 1160.7,980.946C1160.69,981.033 1160.71,981.121 1160.77,981.189C1170.79,993.521 1181.85,1001.63 1193.97,1004.9C1206.26,1008.22 1219.64,1006.56 1234.13,999.268C1244.39,994.107 1250.92,987.787 1255.29,980.799C1260.42,972.595 1262.57,963.467 1264.27,954.201C1264.27,954.201 1281.38,945.647 1281.38,945.647L1281.38,945.646ZM1256.15,916.262C1256.22,916.22 1256.28,916.148 1256.29,916.064C1256.31,915.98 1256.29,915.892 1256.24,915.823C1249.54,906.67 1237.62,897.935 1223.48,893.442C1211.29,889.569 1197.46,888.847 1183.9,893.718C1183.88,893.726 1183.86,893.736 1183.84,893.749C1167.12,904.73 1157.73,915.745 1153.34,927.155C1147.91,941.282 1150.15,956.027 1155.72,972.098C1155.75,972.182 1155.81,972.249 1155.89,972.28C1155.98,972.312 1156.07,972.305 1156.15,972.262L1256.15,916.262ZM1255.56,915.905L1156.17,971.563C1150.73,955.77 1148.56,941.269 1153.9,927.37C1158.25,916.06 1167.57,905.156 1184.13,894.271C1197.55,889.461 1211.24,890.182 1223.3,894.014C1237.16,898.42 1248.88,906.938 1255.56,915.905L1255.56,915.905Z" style="fill:rgb(7,52,32);"/>
    </g>
    <g transform="matrix(0.540082,0,0,0.571931,133.947,179.623)">
      <path d="M1281.63,945.183C1281.88,947.631 1282,950.112 1282,952.621C1282,994.224 1247.95,1028 1206,1028C1164.05,1028 1130.9,993.588 1132,952C1133.08,911.272 1164.51,877.61 1206,877.242C1234.53,876.989 1259.41,892.707 1272.41,915.879L1167.2,979.043C1187.29,1003.76 1205.35,1013.42 1234,999C1256.26,987.801 1256.64,975.189 1259.78,958.061L1281.63,945.183ZM1248.67,919.595L1163.5,972.049C1153.48,943.124 1146.61,919.586 1183.87,895.117C1208.84,878.716 1236.25,902.635 1248.67,919.595Z" style="fill:rgb(7,52,32);"/>
      <path d="M1282.19,945.134C1282.17,944.953 1282.05,944.794 1281.88,944.713C1281.71,944.632 1281.5,944.642 1281.34,944.738L1259.49,957.616C1259.35,957.696 1259.26,957.825 1259.23,957.972C1257.56,967.132 1256.68,974.995 1252.78,982.036C1249.44,988.038 1243.89,993.431 1233.74,998.537C1219.11,1005.89 1207.29,1006.93 1196.53,1002.82C1186.56,999.005 1177.51,990.791 1168.01,979.178C1168.01,979.178 1272.7,916.321 1272.7,916.321C1272.95,916.175 1273.03,915.875 1272.9,915.633C1266.33,903.928 1256.76,894.112 1245.21,887.267C1233.74,880.461 1220.32,876.59 1206,876.717C1184.7,876.906 1166.04,885.792 1152.71,899.891C1139.87,913.463 1131.98,931.868 1131.44,951.987C1130.9,972.562 1138.68,991.392 1151.75,1005.23C1165.29,1019.56 1184.5,1028.53 1206,1028.53C1227.47,1028.53 1246.88,1019.75 1260.79,1005.61C1274.25,991.93 1282.56,973.23 1282.56,952.621C1282.56,951.365 1282.53,950.115 1282.46,948.874C1282.4,947.619 1282.31,946.372 1282.19,945.134ZM1281.16,946.08C1281.24,947.023 1281.31,947.97 1281.35,948.922C1281.41,950.148 1281.44,951.381 1281.44,952.621C1281.44,972.951 1273.26,991.401 1259.98,1004.9C1246.28,1018.82 1227.15,1027.47 1206,1027.47C1184.83,1027.47 1165.91,1018.64 1152.58,1004.53C1139.69,990.883 1132.02,972.308 1132.56,952.013C1133.08,932.155 1140.87,913.986 1153.54,900.59C1166.67,886.707 1185.04,877.952 1206.01,877.766C1220.12,877.641 1233.33,881.453 1244.62,888.155C1255.86,894.821 1265.21,904.345 1271.67,915.697C1271.67,915.697 1166.9,978.6 1166.9,978.6C1166.77,978.679 1166.68,978.807 1166.66,978.952C1166.63,979.097 1166.67,979.246 1166.76,979.362C1176.54,991.395 1185.86,999.87 1196.12,1003.79C1207.14,1008.01 1219.27,1007 1234.26,999.463C1244.67,994.228 1250.34,988.677 1253.76,982.523C1257.69,975.449 1258.61,967.563 1260.29,958.382C1260.29,958.382 1281.16,946.081 1281.16,946.081L1281.16,946.08ZM1248.98,920.035C1249.1,919.957 1249.19,919.835 1249.22,919.696C1249.25,919.557 1249.21,919.413 1249.13,919.297C1241.55,908.954 1228.43,896.054 1213.69,891.138C1203.98,887.903 1193.57,888.103 1183.55,894.686C1166.13,906.127 1158.29,917.383 1155.88,929.054C1153.09,942.533 1157.56,956.594 1162.97,972.212C1163.03,972.367 1163.15,972.49 1163.32,972.544C1163.48,972.598 1163.66,972.578 1163.8,972.489L1248.98,920.035ZM1247.89,919.451L1163.8,971.236C1158.56,956.066 1154.25,942.385 1156.97,929.256C1159.34,917.797 1167.08,906.78 1184.18,895.547C1193.87,889.184 1203.93,889 1213.32,892.127C1227.64,896.9 1240.38,909.338 1247.89,919.451L1247.89,919.451Z" style="fill:rgb(7,52,32);"/>
    </g>
    <path d="M1856,1028L1856,860C1833.69,858.586 1808.44,847.658 1818,830C1825.54,816.071 1832.04,819.789 1856,820.201C1868.26,820.411 1876.37,802.679 1878,797.207L1888,797.207L1888,846C1893.95,840.775 1959.99,835.189 1976,834L1974,842C1960.48,842.902 1897.4,849.502 1888,860L1888,1028L1856,1028ZM1856,828.599L1856,855C1841.01,854.382 1814.21,854.65 1821,833C1824.96,820.37 1841.46,819.31 1856,828.599Z" style="fill:rgb(7,52,32);"/>
    <path d="M1855.6,1028C1855.6,1028.22 1855.78,1028.4 1856,1028.4L1888,1028.4C1888.22,1028.4 1888.4,1028.22 1888.4,1028L1888.4,860.155C1889.7,858.77 1891.95,857.465 1894.9,856.224C1899.47,854.304 1905.69,852.561 1912.68,851.006C1935.03,846.028 1965.17,842.99 1974.03,842.399C1974.2,842.388 1974.35,842.265 1974.39,842.097L1976.39,834.097C1976.42,833.972 1976.39,833.841 1976.31,833.742C1976.22,833.644 1976.1,833.592 1975.97,833.601C1965.92,834.348 1936.15,836.827 1913.91,839.862C1905.18,841.053 1897.6,842.331 1892.82,843.622C1890.85,844.155 1889.34,844.702 1888.4,845.24C1888.4,845.24 1888.4,797.207 1888.4,797.207C1888.4,796.986 1888.22,796.807 1888,796.807L1878,796.807C1877.82,796.807 1877.67,796.923 1877.62,797.093C1876.6,800.495 1873.06,808.684 1867.56,814.256C1864.34,817.512 1860.46,819.877 1856.01,819.801C1843.81,819.591 1836.13,818.533 1830.53,819.363C1824.99,820.183 1821.44,822.8 1817.65,829.81C1815.39,833.981 1815.04,837.788 1816.09,841.194C1817.15,844.653 1819.68,847.705 1823.2,850.298C1831.01,856.059 1843.69,859.564 1855.6,860.375C1855.6,860.375 1855.6,1028 1855.6,1028ZM1856.4,1027.6L1856.4,860C1856.4,859.789 1856.24,859.614 1856.03,859.601C1844.16,858.849 1831.46,855.399 1823.67,849.654C1820.31,847.174 1817.87,844.268 1816.85,840.958C1815.86,837.736 1816.22,834.137 1818.35,830.19C1821.98,823.482 1825.35,820.939 1830.65,820.154C1836.22,819.329 1843.86,820.392 1855.99,820.601C1860.66,820.681 1864.75,818.233 1868.13,814.818C1873.59,809.288 1877.15,801.23 1878.3,797.607C1878.3,797.607 1887.6,797.607 1887.6,797.607C1887.6,797.607 1887.6,846 1887.6,846C1887.6,846.157 1887.69,846.3 1887.84,846.364C1887.98,846.429 1888.15,846.404 1888.26,846.301C1888.99,845.662 1890.66,845.035 1893.03,844.394C1897.79,843.109 1905.33,841.84 1914.02,840.654C1935.85,837.675 1964.94,835.233 1975.48,834.44C1975.48,834.44 1973.68,841.621 1973.68,841.621C1964.46,842.258 1934.66,845.29 1912.5,850.225C1905.47,851.792 1899.2,853.552 1894.6,855.486C1891.42,856.818 1889.04,858.242 1887.7,859.733C1887.64,859.806 1887.6,859.902 1887.6,860L1887.6,1027.6L1856.4,1027.6ZM1856.4,828.599C1856.4,828.463 1856.33,828.336 1856.22,828.262C1848.15,823.113 1839.5,821.121 1832.66,822.457C1826.93,823.576 1822.46,827.015 1820.62,832.88C1819.02,837.966 1819.26,841.872 1820.72,844.88C1821.91,847.33 1823.92,849.193 1826.46,850.607C1834.27,854.956 1847.16,855.036 1855.98,855.4C1856.09,855.404 1856.2,855.364 1856.28,855.289C1856.36,855.213 1856.4,855.109 1856.4,855L1856.4,828.599ZM1855.6,828.819L1855.6,854.584C1846.9,854.239 1834.44,854.136 1826.85,849.908C1824.46,848.578 1822.56,846.836 1821.44,844.53C1820.05,841.67 1819.87,837.956 1821.38,833.12C1823.13,827.556 1827.38,824.304 1832.81,823.242C1839.43,821.949 1847.79,823.882 1855.6,828.819L1855.6,828.819Z" style="fill:rgb(7,52,32);"/>
    <path d="M1968,828.599L1968,1028L2000,1028.55L2000,797.207L1990,797.207C1983.69,812.403 1973.33,820.601 1958,820.201L1958,828.599L1968,828.599Z" style="fill:rgb(7,52,32);"/>
    <path d="M1967.6,828.999L1967.6,1028C1967.6,1028.22 1967.78,1028.4 1967.99,1028.4L1999.99,1028.95C2000.1,1028.95 2000.2,1028.91 2000.28,1028.83C2000.36,1028.76 2000.4,1028.65 2000.4,1028.55L2000.4,797.207C2000.4,796.986 2000.22,796.807 2000,796.807L1990,796.807C1989.84,796.807 1989.69,796.904 1989.63,797.054C1986.6,804.36 1982.62,810.036 1977.6,813.893C1972.28,817.967 1965.8,820.004 1958.01,819.801C1957.9,819.798 1957.8,819.839 1957.72,819.914C1957.64,819.989 1957.6,820.093 1957.6,820.201L1957.6,828.599C1957.6,828.82 1957.78,828.999 1958,828.999L1967.6,828.999ZM1968.4,828.599C1968.4,828.378 1968.22,828.199 1968,828.199L1958.4,828.199C1958.4,828.199 1958.4,820.609 1958.4,820.609C1966.21,820.736 1972.73,818.636 1978.08,814.528C1983.15,810.637 1987.18,804.94 1990.27,797.607C1990.27,797.607 1999.6,797.607 1999.6,797.607C1999.6,797.607 1999.6,1017.4 1999.6,1028.14C1999.6,1028.14 1968.4,1027.61 1968.4,1027.61C1968.4,1017.82 1968.4,828.599 1968.4,828.599Z" style="fill:rgb(7,52,32);"/>
    <path d="M612,1056L600,1044L1992,1043.81L2016,1043.81C2021.18,1043.78 2027.27,1039.62 2032,1034C2040.85,1023.5 2045.63,1016.44 2046,1016L2060,992L2014,904L2004,904L2004,898C2013.28,893.676 2016.9,889.393 2017,877.242L2022,877.242L2072,972C2089.71,945.393 2103.51,912.026 2118,876C2120.15,870.656 2120.7,865.788 2115,859C2112.41,855.909 2100,852 2100,852C2066.2,840.972 2035.59,840.386 2000,842L2000,834C2035.59,833.437 2071.15,834.519 2104,841C2109.82,842.797 2115.25,843.352 2122,849C2130.05,855.737 2134.04,867.076 2132,876C2123.68,912.409 2107.48,941.43 2090,972L2052,1034C2049.95,1036.99 2042.9,1045.8 2040,1048C2032.23,1053.9 2031.12,1054.47 2022,1056L612,1056Z" style="fill:rgb(7,52,32);"/>
    <path d="M611.717,1056.28C611.792,1056.36 611.894,1056.4 612,1056.4L2022,1056.4C2022.02,1056.4 2022.04,1056.4 2022.07,1056.39C2026.79,1055.6 2029.39,1055.06 2031.85,1053.92C2034.19,1052.84 2036.42,1051.22 2040.24,1048.32C2041.47,1047.39 2043.42,1045.3 2045.44,1042.96C2048.23,1039.71 2051.13,1035.98 2052.33,1034.23C2052.33,1034.22 2052.34,1034.21 2052.34,1034.21L2090.34,972.209C2090.34,972.206 2090.35,972.202 2090.35,972.199C2100.98,953.602 2111.14,935.577 2119.35,916.117C2124.64,903.553 2129.12,890.39 2132.39,876.089C2133.46,871.405 2132.9,866.064 2130.97,861.053C2129.18,856.379 2126.2,851.992 2122.26,848.693C2119.87,846.697 2117.65,845.329 2115.51,844.316C2111.57,842.443 2107.92,841.793 2104.12,840.618C2104.11,840.614 2104.09,840.61 2104.08,840.608C2090.66,837.96 2076.79,836.212 2062.65,835.109C2042.14,833.51 2021.07,833.266 1999.99,833.6C1999.78,833.604 1999.6,833.782 1999.6,834L1999.6,842C1999.6,842.109 1999.64,842.214 1999.72,842.289C1999.8,842.365 1999.91,842.405 2000.02,842.4C2017.74,841.596 2034.23,841.338 2050.49,842.646C2066.83,843.961 2082.95,846.86 2099.88,852.38C2099.88,852.381 2099.88,852.381 2099.88,852.382C2099.88,852.382 2104.89,853.959 2109.19,855.899C2111.59,856.981 2113.78,858.164 2114.69,859.257C2117.14,862.172 2118.42,864.72 2118.89,867.109C2119.5,870.152 2118.8,872.928 2117.63,875.851C2109.29,896.581 2101.18,916.431 2092.42,934.617C2086.08,947.79 2079.4,960.089 2072.04,971.218C2072.04,971.217 2022.35,877.055 2022.35,877.055C2022.29,876.924 2022.15,876.842 2022,876.842L2017,876.842C2016.78,876.842 2016.6,877.019 2016.6,877.239C2016.56,882.88 2015.75,886.801 2013.94,889.813C2011.92,893.177 2008.64,895.395 2003.83,897.637C2003.69,897.703 2003.6,897.845 2003.6,898L2003.6,904C2003.6,904.221 2003.78,904.4 2004,904.4L2013.76,904.4C2013.76,904.4 2059.54,991.989 2059.54,991.989C2059.54,991.989 2045.67,1015.77 2045.67,1015.77C2045.32,1016.22 2043.02,1019.57 2038.87,1024.9C2036.89,1027.43 2034.5,1030.41 2031.69,1033.74C2029.11,1036.81 2026.11,1039.44 2023.09,1041.19C2020.68,1042.58 2018.25,1043.4 2016,1043.41L1992,1043.41L600,1043.6C599.838,1043.6 599.692,1043.7 599.63,1043.85C599.569,1044 599.603,1044.17 599.717,1044.28L611.717,1056.28ZM612.166,1055.6L600.966,1044.4C600.966,1044.4 717,1044.38 717,1044.38C717,1044.38 1992,1044.21 1992,1044.21L2016,1044.21C2018.38,1044.2 2020.94,1043.35 2023.49,1041.88C2026.59,1040.1 2029.66,1037.4 2032.31,1034.26C2035.12,1030.92 2037.52,1027.93 2039.5,1025.39C2043.75,1019.94 2046.06,1016.56 2046.31,1016.26C2046.32,1016.24 2046.33,1016.22 2046.35,1016.2L2060.35,992.202C2060.41,992.083 2060.42,991.937 2060.35,991.815L2014.35,903.815C2014.29,903.683 2014.15,903.6 2014,903.6L2004.4,903.6C2004.4,903.6 2004.4,898.254 2004.4,898.254C2009.26,895.966 2012.56,893.658 2014.62,890.225C2016.45,887.186 2017.32,883.256 2017.4,877.642C2017.4,877.642 2021.76,877.642 2021.76,877.642C2021.76,877.642 2071.65,972.187 2071.65,972.187C2071.71,972.311 2071.84,972.392 2071.98,972.399C2072.12,972.407 2072.26,972.339 2072.33,972.222C2079.86,960.917 2086.68,948.393 2093.14,934.964C2101.91,916.763 2110.02,896.897 2118.37,876.149C2119.61,873.075 2120.32,870.153 2119.68,866.952C2119.18,864.457 2117.86,861.787 2115.31,858.743C2114.34,857.59 2112.05,856.311 2109.52,855.169C2105.23,853.236 2100.25,851.659 2100.12,851.619C2083.14,846.078 2066.96,843.168 2050.55,841.848C2034.38,840.548 2018,840.791 2000.4,841.582C2000.4,841.582 2000.4,834.394 2000.4,834.394C2021.32,834.07 2042.23,834.319 2062.58,835.907C2076.69,837.007 2090.52,838.749 2103.9,841.388C2107.66,842.549 2111.27,843.187 2115.17,845.039C2117.25,846.026 2119.42,847.36 2121.74,849.307C2125.58,852.518 2128.48,856.79 2130.23,861.34C2132.09,866.197 2132.65,871.371 2131.61,875.911C2128.35,890.164 2123.89,903.284 2118.61,915.807C2110.42,935.235 2100.27,953.23 2089.66,971.796C2089.66,971.796 2051.66,1033.78 2051.66,1033.78C2050.47,1035.52 2047.59,1039.22 2044.83,1042.44C2042.86,1044.73 2040.95,1046.77 2039.76,1047.68C2036,1050.53 2033.82,1052.13 2031.52,1053.19C2029.11,1054.3 2026.57,1054.83 2021.97,1055.6C2021.97,1055.6 1992,1055.6 1992,1055.6C1992,1055.6 612.166,1055.6 612.166,1055.6L612.166,1055.6Z" style="fill:rgb(7,52,32);"/>
    <g transform="matrix(1,0,0,1,-528,0.452612)">
      <g transform="matrix(1.56838,0,0,1.2226,-283.856,-230.722)">
        <path d="M1397.53,921.577L1397.53,928.072L1409.01,928.072L1409.01,1029.99L1428.14,1029.99L1428.14,906.234L1420.49,906.234C1414.89,918.009 1412.44,922.004 1397.53,921.577Z" style="fill:rgb(7,52,32);"/>
      </g>
      <g transform="matrix(1.10171,0,0,1.1548,364.878,-155.491)">
        <ellipse cx="1411.38" cy="888.171" rx="16.167" ry="15.44" style="fill:rgb(7,52,32);"/>
      </g>
    </g>
  </g>
  <g id="Layer2">
    <g>
      <g transform="matrix(1.06667,0,0,0.976024,-11.2,4.34218)">
        <path d="M348,878.491L168,878.491L168,720C168.181,689.286 171.044,681.633 201.75,681.775L348,681.775" style="fill:rgb(7,52,32);"/>
        <path d="M348,878.184L168.281,878.184C168.281,870.478 168.281,720.456 168.281,720.001C168.327,712.151 168.548,705.812 169.368,700.727C170.171,695.745 171.547,691.976 173.917,689.182C176.246,686.436 179.533,684.637 184.156,683.533C188.652,682.46 194.4,682.048 201.749,682.082L348,682.082C348.155,682.082 348.281,681.945 348.281,681.775C348.281,681.605 348.155,681.468 348,681.468L201.751,681.468C194.351,681.433 188.563,681.852 184.036,682.933C179.278,684.068 175.902,685.937 173.504,688.764C171.069,691.635 169.639,695.501 168.814,700.62C167.99,705.733 167.765,712.106 167.719,719.998L167.719,878.491C167.719,878.661 167.845,878.799 168,878.799L348,878.799C348.155,878.799 348.281,878.661 348.281,878.491C348.281,878.322 348.155,878.184 348,878.184Z" style="fill:rgb(7,52,32);"/>
      </g>
      <g transform="matrix(-1.06667,0,0,0.976024,731.2,4.34405)">
        <path d="M348,878.491L168,878.491L168,720C168.181,689.286 171.044,681.633 201.75,681.775L348,681.775" style="fill:rgb(206,60,0);"/>
        <path d="M348,878.799L168,878.799C167.845,878.799 167.719,878.661 167.719,878.491L167.719,719.998C167.765,712.106 167.99,705.733 168.814,700.62C169.639,695.501 171.069,691.635 173.504,688.764C175.902,685.937 179.278,684.068 184.036,682.933C188.563,681.852 194.351,681.433 201.751,681.468C202.068,681.468 348,681.468 348,681.468C348.155,681.468 348.281,681.605 348.281,681.775C348.281,681.945 348.155,682.082 348,682.082L201.749,682.082C194.4,682.048 188.652,682.46 184.156,683.533C179.533,684.637 176.246,686.436 173.917,689.182C171.547,691.976 170.171,695.745 169.368,700.727C168.548,705.812 168.327,712.151 168.281,720.001C168.281,720.001 168.281,878.184 168.281,878.184C168.281,878.184 348,878.184 348,878.184C348.155,878.184 348.281,878.322 348.281,878.491C348.281,878.661 348.155,878.799 348,878.799Z" style="fill:rgb(206,60,0);"/>
      </g>
      <g transform="matrix(1.06667,0,0,-0.976024,-11.2,1719.2)">
        <path d="M348,878.491L168,878.491L168,720C168.181,689.286 171.044,681.633 201.75,681.775L348,681.775" style="fill:rgb(100,41,66);"/>
        <path d="M348,878.799L168,878.799C167.845,878.799 167.719,878.661 167.719,878.491L167.719,719.998C167.765,712.106 167.99,705.733 168.814,700.62C169.639,695.501 171.069,691.635 173.504,688.764C175.902,685.937 179.278,684.068 184.036,682.933C188.563,681.852 194.351,681.433 201.751,681.468C202.068,681.468 348,681.468 348,681.468C348.155,681.468 348.281,681.605 348.281,681.775C348.281,681.945 348.155,682.082 348,682.082L201.749,682.082C194.4,682.048 188.652,682.46 184.156,683.533C179.533,684.637 176.246,686.436 173.917,689.182C171.547,691.976 170.171,695.745 169.368,700.727C168.548,705.812 168.327,712.151 168.281,720.001C168.281,720.001 168.281,870.466 168.281,878.184C168.281,878.184 348,878.184 348,878.184C348.155,878.184 348.281,878.322 348.281,878.491C348.281,878.661 348.155,878.799 348,878.799Z" style="fill:rgb(7,52,32);"/>
      </g>
      <path d="M552,959.778L475.095,1053.77L360,1053.77L360,861.773L552,861.773L552,959.778Z" style="fill:rgb(240,149,0);"/>
      <path d="M552.232,959.968C552.276,959.914 552.3,959.847 552.3,959.778L552.3,861.773C552.3,861.607 552.166,861.473 552,861.473L360,861.473C359.834,861.473 359.7,861.607 359.7,861.773L359.7,1053.77C359.7,1053.94 359.834,1054.07 360,1054.07L475.095,1054.07C475.185,1054.07 475.27,1054.03 475.327,1053.96L552.232,959.968ZM551.7,959.671L474.953,1053.47C470.577,1053.47 366.616,1053.47 360.3,1053.47C360.3,1053.47 360.3,870.496 360.3,862.073C360.3,862.073 551.7,862.073 551.7,862.073L551.7,959.671Z" style="fill:rgb(240,149,0);"/>
      <path d="M475.5,980L475.095,1053.77L552,959.778L500,960C482.702,959.78 476.179,965.449 475.5,980Z" style="fill:rgb(254,215,151);"/>
      <path d="M475.2,979.986C475.2,979.99 475.2,979.994 475.2,979.998L474.795,1053.77C474.794,1053.9 474.874,1054.01 474.993,1054.06C475.113,1054.1 475.246,1054.06 475.327,1053.96L552.232,959.968C552.306,959.878 552.321,959.754 552.271,959.649C552.221,959.544 552.115,959.477 551.999,959.478L500.001,959.7C491.903,959.597 486.147,960.788 482.228,963.542C477.671,966.744 475.57,972.063 475.2,979.986ZM475.799,980.008C476.159,972.321 478.151,967.14 482.573,964.033C486.413,961.334 492.061,960.199 499.996,960.3C499.998,960.3 500,960.3 500.001,960.3L551.365,960.08C551.365,960.081 475.399,1052.93 475.399,1052.93L475.799,980.008Z" style="fill:rgb(254,214,149);"/>
    </g>
    <g transform="matrix(0.86112,0,0,0.911341,27.8533,49.6145)">
      <g transform="matrix(1,0,0,1.0303,0,-32)">
        <path d="M570.373,759.007C570.449,731.215 570.479,711.118 568.264,696.586C566.358,684.076 562.687,675.351 556.594,669.141C550.143,662.567 540.87,658.61 527.182,656.532C511.588,654.165 489.703,654.135 458.998,654.155C458.998,654.155 237.035,654.155 237.035,654.155C206.262,653.846 184.371,653.717 168.795,656.121C155.186,658.221 145.96,662.312 139.524,669.162C133.647,675.415 130.033,684.16 128.082,696.572C125.785,711.18 125.657,731.306 125.627,758.994L125.627,957.011C125.685,984.714 125.735,1004.78 127.998,1019.31C129.935,1031.74 133.594,1040.45 139.64,1046.67C146.071,1053.29 155.3,1057.29 168.927,1059.41C184.479,1061.83 206.32,1061.89 237.005,1061.85C238.218,1061.85 459,1061.85 459,1061.85C459,1061.85 460.123,1063.06 464.454,1059.42C465.761,1058.32 468.524,1055.89 474.345,1050.54C486.628,1039.23 512.812,1014.62 568.609,961.036C569.741,959.949 570.373,958.503 570.373,957L570.373,759.007ZM455.297,1051.25L455.215,1051.31C455.215,1051.31 459,1061.85 459,1061.85C455.48,1061.85 452.627,1059.23 452.627,1056C452.627,1054.04 453.68,1052.3 455.297,1051.25ZM456.59,1050.15L236.99,1050.15C207.273,1050.2 186.119,1050.23 171.058,1047.89C160.969,1046.32 153.916,1043.79 149.154,1038.89C144.495,1034.1 142.109,1027.24 140.616,1017.65C138.412,1003.51 138.43,983.968 138.373,956.994C138.373,956.994 138.373,759.906 138.373,759.003C138.402,732.052 138.462,712.46 140.697,698.24C142.214,688.592 144.611,681.654 149.179,676.792C153.908,671.76 160.912,669.191 170.91,667.648C185.977,665.322 207.157,665.545 236.93,665.844C236.953,665.844 236.977,665.845 237,665.845L459.005,665.845C488.768,665.825 509.985,665.77 525.101,668.064C535.245,669.604 542.339,672.088 547.119,676.96C551.801,681.732 554.176,688.592 555.641,698.204C557.797,712.354 557.701,731.924 557.627,758.985C557.627,758.99 557.627,758.995 557.627,759L557.627,954.657C503.153,1006.96 477.445,1031.12 465.317,1042.29C460.67,1046.56 458.06,1048.89 456.59,1050.15Z" style="fill:rgb(33,31,34);"/>
      </g>
      <path d="M564,947.978L486,947.978C485.918,947.978 485.836,947.98 485.754,947.983C479.032,948.228 475.095,948.579 471.854,949.6C467.92,950.84 464.834,952.983 459.629,957.618C456.729,960.201 455.298,962.761 454.526,965.452C453.676,968.412 453.881,971.63 453.638,975.656C453.632,975.747 453.629,975.838 453.628,975.929L452.628,1055.93C452.586,1059.25 455.408,1061.98 458.925,1062.02C462.442,1062.06 465.331,1059.39 465.372,1056.07L466.371,976.201C466.519,973.585 466.354,971.381 466.664,969.369C466.828,968.306 467.269,967.364 468.371,966.382C471.664,963.45 473.397,961.809 475.886,961.025C478.276,960.272 481.198,960.201 486.122,960.022C486.122,960.022 564,960.022 564,960.022C567.517,960.022 570.373,957.323 570.373,954C570.373,950.677 567.517,947.978 564,947.978Z" style="fill:rgb(33,31,34);"/>
    </g>
  </g>
</svg>